<svg xmlns="http://www.w3.org/2000/svg" viewBox="0 0 96 96" width="96" height="96" role="img" aria-label="Claude AI">
  <rect width="96" height="96" fill="#DA7756"/>
  <g fill="#F5F1EA" transform="translate(48 48)">
    <!-- radiating sunburst spokes, evenly spaced -->
    <g>
      <rect x="-2.4" y="-26" width="4.8" height="20" rx="2.4"/>
      <rect x="-2.4" y="-26" width="4.8" height="20" rx="2.4" transform="rotate(30)"/>
      <rect x="-2.4" y="-26" width="4.8" height="20" rx="2.4" transform="rotate(60)"/>
      <rect x="-2.4" y="-26" width="4.8" height="20" rx="2.4" transform="rotate(90)"/>
      <rect x="-2.4" y="-26" width="4.8" height="20" rx="2.4" transform="rotate(120)"/>
      <rect x="-2.4" y="-26" width="4.8" height="20" rx="2.4" transform="rotate(150)"/>
      <rect x="-2.4" y="-26" width="4.8" height="20" rx="2.4" transform="rotate(180)"/>
      <rect x="-2.4" y="-26" width="4.8" height="20" rx="2.4" transform="rotate(210)"/>
      <rect x="-2.4" y="-26" width="4.8" height="20" rx="2.4" transform="rotate(240)"/>
      <rect x="-2.4" y="-26" width="4.8" height="20" rx="2.4" transform="rotate(270)"/>
      <rect x="-2.4" y="-26" width="4.8" height="20" rx="2.4" transform="rotate(300)"/>
      <rect x="-2.4" y="-26" width="4.8" height="20" rx="2.4" transform="rotate(330)"/>
    </g>
    <circle r="6.5"/>
  </g>
</svg>
